<svg width="64" height="64" viewBox="0 0 64 64" fill="none" xmlns="http://www.w3.org/2000/svg">
<g clip-path="url(#clip0_15_163)">
<path d="M32 48.4693C31.9224 49.7878 31.5196 51.0667 30.8274 52.1916C30.1353 53.3166 29.1753 54.2527 28.0333 54.9163C26.8913 55.5799 25.6028 55.9505 24.2827 55.9949C22.9626 56.0392 21.652 55.7561 20.468 55.1706C19.284 54.5852 18.2634 53.7157 17.4972 52.6398C16.7311 51.5639 16.2432 50.315 16.0773 49.0046C15.9113 47.6943 16.0723 46.3632 16.546 45.1302C17.0198 43.8973 17.7914 42.8008 18.792 41.9386L18.7254 42C16.0526 41.062 13.7975 39.2091 12.3589 36.769C10.9203 34.3288 10.3909 31.4586 10.8643 28.6658C11.3376 25.873 12.7832 23.3375 14.9455 21.5077C17.1078 19.6779 19.8474 18.6715 22.68 18.6666C26.4507 18.6666 29.8134 20.4053 32.0134 23.1226C33.1811 21.6799 34.6676 20.5278 36.3559 19.7568C38.0442 18.9858 39.8884 18.6169 41.7434 18.6791C43.5984 18.7414 45.4137 19.2331 47.0465 20.1156C48.6793 20.9981 50.0852 22.2473 51.1535 23.7651C52.2219 25.2828 52.9236 27.0277 53.2035 28.8625C53.4835 30.6973 53.334 32.5721 52.7668 34.3393C52.1996 36.1066 51.2302 37.7182 49.9349 39.0475C48.6395 40.3767 47.0534 41.3874 45.3014 42C46.3047 42.8838 47.0706 44.0051 47.5288 45.2612C47.9871 46.5174 48.1232 47.8684 47.9247 49.1907C47.7262 50.5131 47.1994 51.7645 46.3925 52.8308C45.5856 53.897 44.5243 54.7439 43.3056 55.2942C42.0869 55.8445 40.7498 56.0805 39.4163 55.9807C38.0829 55.8809 36.7958 55.4485 35.6726 54.723C34.5494 53.9975 33.626 53.002 32.9867 51.8275C32.3475 50.6531 32.0128 49.3371 32.0134 48L32 48.4693Z" stroke="white" stroke-width="2" stroke-linecap="round" stroke-linejoin="round"/>
<path d="M32 50.6667V24" stroke="white" stroke-width="2" stroke-linecap="round" stroke-linejoin="round"/>
<path d="M24 8L32 13.3333L40 8" stroke="white" stroke-width="2" stroke-linecap="round" stroke-linejoin="round"/>
</g>
<defs>
<clipPath id="clip0_15_163">
<rect width="64" height="64" fill="white"/>
</clipPath>
</defs>
</svg>
