<svg width="64" height="64" viewBox="0 0 64 64" fill="none" xmlns="http://www.w3.org/2000/svg">
<g clip-path="url(#clip0_15_153)">
<path d="M8 50.6667C11.6485 48.5602 15.7871 47.4513 20 47.4513C24.2129 47.4513 28.3515 48.5602 32 50.6667C35.6485 48.5602 39.7871 47.4513 44 47.4513C48.2129 47.4513 52.3515 48.5602 56 50.6667" stroke="white" stroke-width="2" stroke-linecap="round" stroke-linejoin="round"/>
<path d="M8 16.0001C11.6485 13.8936 15.7871 12.7847 20 12.7847C24.2129 12.7847 28.3515 13.8936 32 16.0001C35.6485 13.8936 39.7871 12.7847 44 12.7847C48.2129 12.7847 52.3515 13.8936 56 16.0001" stroke="white" stroke-width="2" stroke-linecap="round" stroke-linejoin="round"/>
<path d="M8 16V50.6667" stroke="white" stroke-width="2" stroke-linecap="round" stroke-linejoin="round"/>
<path d="M32 16V50.6667" stroke="white" stroke-width="2" stroke-linecap="round" stroke-linejoin="round"/>
<path d="M56 16V50.6667" stroke="white" stroke-width="2" stroke-linecap="round" stroke-linejoin="round"/>
</g>
<defs>
<clipPath id="clip0_15_153">
<rect width="64" height="64" fill="white"/>
</clipPath>
</defs>
</svg>
