<svg width="64" height="64" viewBox="0 0 64 64" fill="none" xmlns="http://www.w3.org/2000/svg">
<g clip-path="url(#clip0_15_181)">
<path d="M26.6667 24H26.6934" stroke="white" stroke-width="2" stroke-linecap="round" stroke-linejoin="round"/>
<path d="M37.3333 24H37.3599" stroke="white" stroke-width="2" stroke-linecap="round" stroke-linejoin="round"/>
<path d="M31.9999 7.99998C36.9506 7.99998 41.6986 9.96664 45.1992 13.4673C48.6999 16.968 50.6666 21.7159 50.6666 26.6666V29.3333H53.3332C54.7477 29.3333 56.1043 29.8952 57.1045 30.8954C58.1047 31.8956 58.6666 33.2522 58.6666 34.6666C58.6666 36.0811 58.1047 37.4377 57.1045 38.4379C56.1043 39.4381 54.7477 40 53.3332 40H50.6666V48L55.9999 56H29.3333C25.1917 56.0029 21.2104 54.3998 18.2265 51.5278C15.2426 48.6558 13.4886 44.7386 13.3333 40.6V39.9973H10.6666C9.2521 39.9973 7.89554 39.4354 6.89535 38.4352C5.89515 37.435 5.33325 36.0785 5.33325 34.664C5.33325 33.2495 5.89515 31.8929 6.89535 30.8927C7.89554 29.8926 9.2521 29.3306 10.6666 29.3306H13.3333V26.664C13.3333 21.7133 15.2999 16.9653 18.8006 13.4647C22.3013 9.96398 27.0492 7.99998 31.9999 7.99998Z" stroke="white" stroke-width="2" stroke-linecap="round" stroke-linejoin="round"/>
<path d="M29.3333 37.3333H34.6666C34.6666 36.626 34.3856 35.9478 33.8855 35.4477C33.3854 34.9476 32.7072 34.6666 31.9999 34.6666C31.2927 34.6666 30.6144 34.9476 30.1143 35.4477C29.6142 35.9478 29.3333 36.626 29.3333 37.3333Z" stroke="white" stroke-width="2" stroke-linecap="round" stroke-linejoin="round"/>
</g>
<defs>
<clipPath id="clip0_15_181">
<rect width="64" height="64" fill="white"/>
</clipPath>
</defs>
</svg>
