<svg id="katman_1" data-name="katman 1" xmlns="http://www.w3.org/2000/svg" width="176" height="46" viewBox="0 0 176 46"><defs><style>.cls-1,.cls-3{fill:#1d1d1b;}.cls-2{fill:none;stroke-width:2px;}.cls-2,.cls-3{stroke:#1d1d1b;stroke-miterlimit:22.9256;}.cls-3{stroke-width:0.5669px;fill-rule:evenodd;}.cls-4{fill:#fff;}</style></defs><polygon class="cls-1" points="3.824 34.528 3.824 23.878 12.388 23.878 12.388 21.791 3.824 21.791 3.824 13.592 13.13 13.592 13.13 11.474 1.258 11.474 1.258 34.528 3.824 34.528 3.824 34.528"/><path class="cls-1" d="M18.6329,9.8375a1.6087,1.6087,0,0,0,0-3.2149,1.6075,1.6075,0,1,0,0,3.2149Z"/><polygon class="cls-1" points="17.304 34.526 19.901 34.526 19.901 11.474 17.304 11.474 17.304 34.526 17.304 34.526"/><line class="cls-2" x1="27.7249" y1="46" x2="27.7249"/><polygon class="cls-1" points="50.273 11.474 35.662 11.474 35.662 13.592 47.036 13.592 47.036 13.682 34.633 33.013 34.633 34.526 50.394 34.526 50.394 32.408 37.901 32.408 37.901 32.287 50.273 13.047 50.273 11.474 50.273 11.474"/><polygon class="cls-1" points="66.315 32.408 56.665 32.408 56.665 23.484 65.256 23.484 65.256 21.397 56.665 21.397 56.665 13.592 65.801 13.592 65.801 11.474 54.154 11.474 54.154 34.526 66.315 34.526 66.315 32.408 66.315 32.408"/><polygon class="cls-1" points="85.794 11.474 69.7 11.474 69.7 13.592 76.477 13.592 76.477 34.526 78.987 34.526 78.987 13.592 85.794 13.592 85.794 11.474 85.794 11.474"/><polygon class="cls-3" points="89.564 11.485 174.742 11.485 174.742 34.502 89.564 34.502 89.564 11.485 89.564 11.485"/><path class="cls-4" d="M114.527,15.2h-4.1l-1.2763,5.0121c-.4444,1.8117-.87,3.8041-1.1793,5.5957h-.0772c-.29-1.8317-.7156-3.7237-1.1412-5.5755L105.5549,15.2h-4.1574l-1.0249,15.5592h3.055l.2513-5.535c.0776-1.671.1742-3.8649.2321-5.7971h.058c.31,1.9121.7348,4.0257,1.1024,5.5149l1.3342,5.5354h2.5719l1.4693-5.5757c.4063-1.4892.9283-3.6026,1.3149-5.4746h.0584c-.0193,2.0533.0578,4.1261.135,5.7766l.2129,5.5555h3.21L114.527,15.2Zm11.68,12.6h-5.0859V24.1776h4.5444V21.279h-4.5444v-3.12h4.7958V15.2h-8.1991V30.7593h8.4892V27.8Zm2.1655,2.8785A23.22,23.22,0,0,0,131.64,30.9c2.5912,0,4.6216-.564,5.9559-1.7514,1.2376-1.107,2.34-3.14,2.34-6.4611,0-2.8579-.8314-4.8308-2.2819-6.0583a7.9687,7.9687,0,0,0-5.3564-1.53,23.5648,23.5648,0,0,0-3.9254.322V30.6789Zm3.384-12.7209a4.2254,4.2254,0,0,1,1.0441-.1009c2.1468,0,3.5775,1.61,3.5775,4.8508,0,3.8444-1.5856,5.3944-3.81,5.3743a5.1179,5.1179,0,0,1-.8121-.04V17.958ZM148.5215,15.2,147.4,18.8235c-.3479,1.1069-.6379,2.0934-.8893,3.12h-.0386c-.29-1.0668-.5805-2.0327-.9284-3.1L144.325,15.2h-3.8091l4.0992,9.44v6.1191h3.4036V24.5L152.2534,15.2Z"/><path class="cls-4" d="M160.105,15.1255h-4.3123L151.848,30.6847H155.29l.8121-3.6228h3.4423l.87,3.6228h3.5191L160.105,15.1255Zm-3.5968,9.2593.677-3.12c.1738-.8855.4251-2.3144.6186-3.2606h.0386c.1935.9462.4449,2.3349.638,3.2606l.6576,3.12Z"/></svg>